# xmcd CD database file
#
# Track frame offsets:
#	150
#	23999
#	41606
#	69677
#	93126
#	120894
#	143021
#	171407
#	190116
#	209046
#	245693
#	275279
#
# Disc length: 3902 seconds
#
# Revision: 0
# Processed by: cddbd v1.5.2PL0 Copyright (c) Steve Scherf et al.
# Submitted via: CDex 1.51
#
DISCID=aa0f3c0c
DTITLE=Andrew Rathbun - Shadow Forms
DYEAR=2006
DGENRE=Jazz
TTITLE0=Street Talk
TTITLE1=To The Matt
TTITLE2=Scatter Scott
TTITLE3=Drewsie
TTITLE4=Pass It In
TTITLE5=Herbie At Sixty
TTITLE6=Ripple
TTITLE7=This Fall 9/11
TTITLE8=Elmo
TTITLE9=Look Again
TTITLE10=Fifteen Minute Drill
TTITLE11=Onmo
EXTD=YEAR: 2006
EXTT0=
EXTT1=
EXTT2=
EXTT3=
EXTT4=
EXTT5=
EXTT6=
EXTT7=
EXTT8=
EXTT9=
EXTT10=
EXTT11=
PLAYORDER=
